<?xml version="1.0" ?><svg viewBox="0 0 60 60" xmlns="http://www.w3.org/2000/svg"><defs><style>.a,.b{fill:none;stroke-linecap:round;stroke-linejoin:round;stroke-width:1.5px;}.a{stroke:#1c4db8;}.b{stroke:#e82e5f;}.c{fill:#e82e5f;}</style></defs><title/><path class="a" d="M28.519,55.542H6.312a2.961,2.961,0,0,1-2.961-2.961V32.84"/><path class="a" d="M49.247,51.1v1.484a2.961,2.961,0,0,1-2.961,2.961H43.325"/><path class="a" d="M36.662,44.861,32.221,41.05a2.961,2.961,0,0,0-2.19-.968H22.567a2.959,2.959,0,0,0-2.19.968L4.368,54.8"/><line class="a" x1="49.411" x2="32.221" y1="32.761" y2="41.05"/><line class="a" x1="3.351" x2="20.377" y1="32.84" y2="41.05"/><line class="a" x1="30.37" x2="47.766" y1="5.201" y2="5.201"/><path class="a" d="M9.273,35.552V12.6a7.377,7.377,0,0,1,.616-2.961"/><path class="b" d="M22.485,15.509v2.9A1.481,1.481,0,0,1,21,19.894H15.2a1.481,1.481,0,0,1-1.481-1.481V12.6A1.481,1.481,0,0,1,15.2,11.123H19.01"/><rect class="b" height="8.771" rx="1" width="8.771" x="13.714" y="25.532"/><path class="c" d="M15.408,14.631l1.386,1.382c.38.379.815,1,1.4,1.034.624.032.952-.475,1.27-.928.277-.395.559-.786.85-1.17a11.064,11.064,0,0,1,4.261-3.843.773.773,0,0,0,.524-.922.755.755,0,0,0-.923-.524,10.013,10.013,0,0,0-3.549,2.587c-.515.552-.99,1.139-1.45,1.737q-.333.434-.653.877-.162.225-.321.451l-.137.2L18,15.6q-.132.163.2-.057l.379.1a2.265,2.265,0,0,1-.429-.409l-.577-.576-1.1-1.094a.75.75,0,0,0-1.06,1.061Z"/><line class="b" x1="25.722" x2="30.525" y1="15.126" y2="15.126"/><line class="b" x1="25.722" x2="34.527" y1="19.128" y2="19.128"/><line class="b" x1="25.722" x2="30.525" y1="29.535" y2="29.535"/><line class="b" x1="25.722" x2="34.527" y1="33.537" y2="33.537"/><path class="a" d="M47.766,5.2a4.441,4.441,0,0,0-4.441,4.442V35.552"/><path class="a" d="M47.766,5.2a4.442,4.442,0,0,1,4.442,4.442v3.2a.5.5,0,0,1-.5.5H43.325"/><path class="a" d="M44.79,32.182h2.617A1.893,1.893,0,0,1,49.3,34.075V56.81a0,0,0,0,1,0,0H42.9a0,0,0,0,1,0,0V34.075A1.893,1.893,0,0,1,44.79,32.182Z" transform="translate(44.965 -19.564) rotate(45)"/><path class="a" d="M35.128,50.939S31.166,57.165,32.3,58.3s7.357-2.83,7.357-2.83"/><path class="a" d="M54.806,40.316l1.276,1.311a2,2,0,0,1,0,2.791l-4.026,4.148"/><line class="a" x1="47.308" x2="51.835" y1="38.759" y2="43.287"/><line class="a" x1="49.411" x2="43.325" y1="32.761" y2="26.478"/><line class="a" x1="9.273" x2="3.351" y1="26.478" y2="32.84"/><line class="b" x1="18.279" x2="18.279" y1="1.5" y2="4.955"/><line class="b" x1="25.762" x2="23.886" y1="3.781" y2="6.682"/><line class="b" x1="10.55" x2="12.426" y1="3.781" y2="6.682"/></svg>